# xmcd CD database file
#
# Track frame offsets:
#	150
#	14272
#	32080
#	44294
#	56463
#	69694
#	79639
#	97915
#	109490
#	121591
#	134422
#	150584
#	165849
#	179842
#	191459
#	199624
#	212694
#	228554
#	246718
#	261309
#
# Disc length: 3636 seconds
#
# Revision: 0
# Processed by: cddbd v1.5.1PL0 Copyright (c) Steve Scherf et al.
# Submitted via: CDex 1.50Beta7
#
DISCID=150e3214
DTITLE=Não bebo não fumo e não fujo - Riverside club
DYEAR=2005
DGENRE=Country
TTITLE0=Roberto and Meirinho - A noite do nosso amor
TTITLE1=Chitãozinho and Xororó - Amante
TTITLE2=Moda de viola - Amargurado
TTITLE3=Teodoro and Sampaio - Amigos de bar
TTITLE4=João Mineiro and Marciano - Amor e amizade
TTITLE5=Gilberto and Gilmar - Amor proíbido
TTITLE6=As Marcianas - Nossa melodia preferida
TTITLE7=Gilberto and Gilmar - Assino com X
TTITLE8=Trio Parada Dura - Avião das nove
TTITLE9=Trio Parada Dura - Beco sem saída
TTITLE10=Trio Parada Dura - Blusa vermelha
TTITLE11=Joaquim and Manuel - Boate azul
TTITLE12=Gilberto and Gilmar - Capa de revista
TTITLE13=Gilberto and Gilmar - Roupas de cama
TTITLE14=Tonico and Tinoco - Coração sofredor
TTITLE15=Duduca and Dalvan - Dama de vermelho
TTITLE16=Barreirito - Dama de vestido longo
TTITLE17=Matogrosso and Mathias - De igual pra igual
TTITLE18=Trio Parada Dura - uma vez por mes
TTITLE19=Juliano and Jardel - Sorrizo mudo
EXTD=YEAR: 2005
EXTT0=
EXTT1=
EXTT2=
EXTT3=
EXTT4=
EXTT5=
EXTT6=
EXTT7=
EXTT8=
EXTT9=
EXTT10=
EXTT11=
EXTT12=
EXTT13=
EXTT14=
EXTT15=
EXTT16=
EXTT17=
EXTT18=
EXTT19=
PLAYORDER=
